<?xml version="1.0" encoding="iso-8859-1"?>
<!-- Generator: Adobe Illustrator 19.0.0, SVG Export Plug-In . SVG Version: 6.00 Build 0)  -->
<svg version="1.1" id="&#x56FE;&#x5C42;_1" xmlns="http://www.w3.org/2000/svg" xmlns:xlink="http://www.w3.org/1999/xlink" x="0px"
	 y="0px" viewBox="0 0 100 36" style="enable-background:new 0 0 100 36;" xml:space="preserve">
<pattern  width="72" height="72" patternUnits="userSpaceOnUse" id="_x31_0_lpi_50_x25__2" viewBox="72.25 -72 72 72" style="overflow:visible;">
	<g id="XMLID_207_">
		<polygon id="XMLID_241_" style="fill:none;" points="72.25,-72 144.25,-72 144.25,0 72.25,0 		"/>
		<g id="XMLID_230_">
			<line id="XMLID_240_" style="fill:none;stroke:#DCE7EA;stroke-width:3.6;" x1="144" y1="-3.601" x2="216.5" y2="-3.601"/>
			<line id="XMLID_239_" style="fill:none;stroke:#DCE7EA;stroke-width:3.6;" x1="144" y1="-18" x2="216.5" y2="-18"/>
			<line id="XMLID_238_" style="fill:none;stroke:#DCE7EA;stroke-width:3.6;" x1="144" y1="-32.4" x2="216.5" y2="-32.4"/>
			<line id="XMLID_237_" style="fill:none;stroke:#DCE7EA;stroke-width:3.6;" x1="144" y1="-46.801" x2="216.5" y2="-46.801"/>
			<line id="XMLID_236_" style="fill:none;stroke:#DCE7EA;stroke-width:3.6;" x1="144" y1="-61.2" x2="216.5" y2="-61.2"/>
			<line id="XMLID_235_" style="fill:none;stroke:#DCE7EA;stroke-width:3.6;" x1="144" y1="-10.801" x2="216.5" y2="-10.801"/>
			<line id="XMLID_234_" style="fill:none;stroke:#DCE7EA;stroke-width:3.6;" x1="144" y1="-25.2" x2="216.5" y2="-25.2"/>
			<line id="XMLID_233_" style="fill:none;stroke:#DCE7EA;stroke-width:3.6;" x1="144" y1="-39.601" x2="216.5" y2="-39.601"/>
			<line id="XMLID_232_" style="fill:none;stroke:#DCE7EA;stroke-width:3.6;" x1="144" y1="-54" x2="216.5" y2="-54"/>
			<line id="XMLID_231_" style="fill:none;stroke:#DCE7EA;stroke-width:3.6;" x1="144" y1="-68.4" x2="216.5" y2="-68.4"/>
		</g>
		<g id="XMLID_219_">
			<line id="XMLID_229_" style="fill:none;stroke:#DCE7EA;stroke-width:3.6;" x1="72" y1="-3.601" x2="144.5" y2="-3.601"/>
			<line id="XMLID_228_" style="fill:none;stroke:#DCE7EA;stroke-width:3.6;" x1="72" y1="-18" x2="144.5" y2="-18"/>
			<line id="XMLID_227_" style="fill:none;stroke:#DCE7EA;stroke-width:3.6;" x1="72" y1="-32.4" x2="144.5" y2="-32.4"/>
			<line id="XMLID_226_" style="fill:none;stroke:#DCE7EA;stroke-width:3.6;" x1="72" y1="-46.801" x2="144.5" y2="-46.801"/>
			<line id="XMLID_225_" style="fill:none;stroke:#DCE7EA;stroke-width:3.6;" x1="72" y1="-61.2" x2="144.5" y2="-61.2"/>
			<line id="XMLID_224_" style="fill:none;stroke:#DCE7EA;stroke-width:3.6;" x1="72" y1="-10.801" x2="144.5" y2="-10.801"/>
			<line id="XMLID_223_" style="fill:none;stroke:#DCE7EA;stroke-width:3.6;" x1="72" y1="-25.2" x2="144.5" y2="-25.2"/>
			<line id="XMLID_222_" style="fill:none;stroke:#DCE7EA;stroke-width:3.6;" x1="72" y1="-39.601" x2="144.5" y2="-39.601"/>
			<line id="XMLID_221_" style="fill:none;stroke:#DCE7EA;stroke-width:3.6;" x1="72" y1="-54" x2="144.5" y2="-54"/>
			<line id="XMLID_220_" style="fill:none;stroke:#DCE7EA;stroke-width:3.6;" x1="72" y1="-68.4" x2="144.5" y2="-68.4"/>
		</g>
		<g id="XMLID_208_">
			<line id="XMLID_218_" style="fill:none;stroke:#DCE7EA;stroke-width:3.6;" x1="0" y1="-3.601" x2="72.5" y2="-3.601"/>
			<line id="XMLID_217_" style="fill:none;stroke:#DCE7EA;stroke-width:3.6;" x1="0" y1="-18" x2="72.5" y2="-18"/>
			<line id="XMLID_216_" style="fill:none;stroke:#DCE7EA;stroke-width:3.6;" x1="0" y1="-32.4" x2="72.5" y2="-32.4"/>
			<line id="XMLID_215_" style="fill:none;stroke:#DCE7EA;stroke-width:3.6;" x1="0" y1="-46.801" x2="72.5" y2="-46.801"/>
			<line id="XMLID_214_" style="fill:none;stroke:#DCE7EA;stroke-width:3.6;" x1="0" y1="-61.2" x2="72.5" y2="-61.2"/>
			<line id="XMLID_213_" style="fill:none;stroke:#DCE7EA;stroke-width:3.6;" x1="0" y1="-10.801" x2="72.5" y2="-10.801"/>
			<line id="XMLID_212_" style="fill:none;stroke:#DCE7EA;stroke-width:3.6;" x1="0" y1="-25.2" x2="72.5" y2="-25.2"/>
			<line id="XMLID_211_" style="fill:none;stroke:#DCE7EA;stroke-width:3.6;" x1="0" y1="-39.601" x2="72.5" y2="-39.601"/>
			<line id="XMLID_210_" style="fill:none;stroke:#DCE7EA;stroke-width:3.6;" x1="0" y1="-54" x2="72.5" y2="-54"/>
			<line id="XMLID_209_" style="fill:none;stroke:#DCE7EA;stroke-width:3.6;" x1="0" y1="-68.4" x2="72.5" y2="-68.4"/>
		</g>
	</g>
</pattern>
<rect id="XMLID_640_" style="fill:#E70012;" width="100" height="36"/>
<pattern  id="XMLID_2_" xlink:href="#_x31_0_lpi_50_x25__2" patternTransform="matrix(-1.9482 0.4669 -18.6142 3.9482 -178794.4063 28434.5391)">
</pattern>
<rect id="XMLID_639_" style="fill:url(#XMLID_2_);" width="100" height="36"/>
</svg>
